<svg xmlns="http://www.w3.org/2000/svg" xmlns:xlink="http://www.w3.org/1999/xlink" width="56" height="57" viewBox="0 0 56 57">
    <defs>
        <path id="a" d="M0 0h55.983v55.983H0z"/>
    </defs>
    <g fill="none" fill-rule="evenodd">
        <mask id="b" fill="#fff">
            <use xlink:href="#a"/>
        </mask>
        <path fill="#F00" d="M52.894 55.983a3.09 3.09 0 0 0 3.09-3.09V3.09A3.09 3.09 0 0 0 52.893 0H3.09A3.09 3.09 0 0 0 0 3.09v49.804a3.09 3.09 0 0 0 3.09 3.09h49.804z" mask="url(#b)"/>
        <path fill="#FFF" d="M47.04 18.247a4.866 4.866 0 0 0-3.435-3.435C40.575 14 28.425 14 28.425 14s-12.148 0-15.178.812a4.866 4.866 0 0 0-3.435 3.435C9 21.277 9 27.598 9 27.598s0 6.322.812 9.351a4.867 4.867 0 0 0 3.435 3.435c3.03.812 15.179.812 15.179.812s12.149 0 15.179-.812a4.866 4.866 0 0 0 3.435-3.435c.812-3.03.812-9.35.812-9.35s0-6.322-.812-9.352"/>
        <path fill="#F00" d="M23 33.656l10.094-5.828L23 22z"/>
    </g>
</svg>
